<?xml version="1.0" encoding="iso-8859-1"?>
<!-- Generator: Adobe Illustrator 19.0.0, SVG Export Plug-In . SVG Version: 6.00 Build 0)  -->
<svg version="1.1" id="Capa_1" xmlns="http://www.w3.org/2000/svg" xmlns:xlink="http://www.w3.org/1999/xlink" x="0px" y="0px"
	 viewBox="0 0 512 512" style="enable-background:new 0 0 512 512;" xml:space="preserve">
<g>
	<path style="fill:#A4D9F5;" d="M225,330h-60c-8.284,0-15-6.716-15-15c0-38.159,22.045-50.185,38.142-58.966
		C202.236,248.346,210,244.11,210,225c0-8.271-6.729-15-15-15s-15,6.729-15,15c0,8.284-6.716,15-15,15s-15-6.716-15-15
		c0-24.813,20.187-45,45-45s45,20.187,45,45c0,36.918-21.669,48.739-37.491,57.371c-9.975,5.441-16.87,9.203-20.208,17.629H225
		c8.284,0,15,6.716,15,15S233.284,330,225,330z"/>
	<path style="fill:#A4D9F5;" d="M377,270h-90c-8.284,0-15-6.716-15-15v-60c0-8.284,6.716-15,15-15s15,6.716,15,15v45h75
		c8.284,0,15,6.716,15,15S385.284,270,377,270z"/>
	<path style="fill:#A4D9F5;" d="M347,330c-8.284,0-15-6.716-15-15V195c0-8.284,6.716-15,15-15s15,6.716,15,15v120
		C362,323.284,355.284,330,347,330z"/>
</g>
<path style="fill:#17ACE8;" d="M255,452c-51.935,0-100.911-20.688-137.909-58.253C80.275,356.367,60,307.092,60,255
	c0-107.523,87.477-195,195-195c52.092,0,101.366,20.275,138.747,57.091C431.313,154.088,452,203.065,452,255
	c0,52.012-20.659,101.315-58.172,138.828S307.012,452,255,452z M255,90c-90.981,0-165,74.019-165,165c0,92.084,74.019,167,165,167
	c90.523,0,167-76.477,167-167C422,164.019,347.084,90,255,90z"/>
<g>
	<path style="fill:#FEA832;" d="M467,60c-8.284,0-15,6.716-15,15v15.8C403.776,33.951,331.679,0,255,0
		C186.917,0,122.896,26.505,74.734,74.634C26.541,122.793,0,186.848,0,255c0,8.284,6.716,15,15,15s15-6.716,15-15
		C30,130.935,130.935,30,255,30c72.116,0,139.616,33.915,181.97,90H407c-8.284,0-15,6.716-15,15s6.716,15,15,15h60
		c8.284,0,15-6.716,15-15V75C482,66.716,475.284,60,467,60z"/>
	<path style="fill:#FEA832;" d="M497,242c-8.284,0-15,6.716-15,15c0,124.065-101.832,225-227,225
		c-71.021,0-137.795-33.915-179.999-90H105c8.284,0,15-6.716,15-15s-6.716-15-15-15H45c-8.284,0-15,6.716-15,15v60
		c0,8.284,6.716,15,15,15s15-6.716,15-15v-15.682c18.701,22.172,41.113,41.117,66.253,55.839C165.178,499.951,209.697,512,255,512
		c68.206,0,132.576-26.502,181.253-74.625C485.099,389.086,512,325.027,512,257C512,248.716,505.284,242,497,242z"/>
</g>
<g>
</g>
<g>
</g>
<g>
</g>
<g>
</g>
<g>
</g>
<g>
</g>
<g>
</g>
<g>
</g>
<g>
</g>
<g>
</g>
<g>
</g>
<g>
</g>
<g>
</g>
<g>
</g>
<g>
</g>
</svg>
