<svg height="512" viewBox="0 0 64 64" width="512" xmlns="http://www.w3.org/2000/svg"><g id="Fill_Outline" data-name="Fill Outline"><g id="color"><g><rect fill="#d0d8da" height="32" rx="4" width="48" x="8" y="19"/><path d="m47 38a12 12 0 0 1 -12-12v-7h-23a4 4 0 0 0 -4 4v24a4 4 0 0 0 4 4h40a4 4 0 0 0 4-4v-9z" fill="#93999a"/><path d="m16 57h32a4 4 0 0 1 4 4 0 0 0 0 1 0 0h-40a0 0 0 0 1 0 0 4 4 0 0 1 4-4z" fill="#f9e109"/><path d="m45 57h-26l3.317-1.658a4.856 4.856 0 0 0 2.683-4.342h14a4.856 4.856 0 0 0 2.683 4.342z" fill="#fcbc04"/><path d="m8 45h48a0 0 0 0 1 0 0v2a4 4 0 0 1 -4 4h-40a4 4 0 0 1 -4-4v-2a0 0 0 0 1 0 0z" fill="#f9e109"/><g><g fill="#84d2f4"><path d="m16 17h4v4h-4z"/><path d="m20 17h4v4h-4z"/><path d="m24 17h4v4h-4z"/><path d="m16 13h4v4h-4z"/><path d="m28 29h4v4h-4z"/><path d="m28 25h4v4h-4z"/><path d="m16 21h4v4h-4z"/><path d="m20 21h4v4h-4z"/><path d="m24 21h4v4h-4z"/><path d="m16 25h4v4h-4z"/><path d="m20 25h4v4h-4z"/><path d="m24 25h4v4h-4z"/></g><path d="m16 29h12v10h-12z" fill="#f9e109"/><path d="m28 37h6v2h-6z" fill="#84d2f4"/><path d="m12 33h4v4h-4z" fill="#84d2f4"/><path d="m32 29h-4v-4z" fill="#57b7eb"/><path d="m32 33h-4v-4z" fill="#57b7eb"/><path d="m28 25h-4v-4z" fill="#57b7eb"/><path d="m28 29h-4v-4z" fill="#57b7eb"/><path d="m24 25h-4v-4z" fill="#57b7eb"/><path d="m24 29h-4v-4z" fill="#57b7eb"/><path d="m20 25h-4v-4z" fill="#57b7eb"/><path d="m28 21h-4v-4z" fill="#57b7eb"/><path d="m24 21h-4v-4z" fill="#57b7eb"/><path d="m20 21h-4v-4z" fill="#57b7eb"/><path d="m20 17h-4v-4z" fill="#57b7eb"/><path d="m20 29h-4v-4z" fill="#57b7eb"/><path d="m28 33h6v4h-6z" fill="#84d2f4"/><path d="m34 37h-6v-4h1z" fill="#57b7eb"/><path d="m34 39h-6v-2h2z" fill="#57b7eb"/><path d="m12 37h4v2h-4z" fill="#84d2f4"/><path d="m16 37h-4v-4z" fill="#57b7eb"/><path d="m16 39h-4v-2h1z" fill="#57b7eb"/><path d="m24 37a6 6 0 0 1 -6-6v-2h-2v10h12v-2z" fill="#fcbc04"/><path d="m21 33h2a1 1 0 0 1 1 1v5a0 0 0 0 1 0 0h-4a0 0 0 0 1 0 0v-5a1 1 0 0 1 1-1z" fill="#84d2f4"/><path d="m23 33h-2a1 1 0 0 0 -1 1h2a1 1 0 0 1 1 1v1.91a5.97 5.97 0 0 1 -3-1.452v3.542h4v-5a1 1 0 0 0 -1-1z" fill="#57b7eb"/></g><g><path d="m41 16h3a0 0 0 0 1 0 0v6a0 0 0 0 1 0 0h-6a0 0 0 0 1 0 0v-3a3 3 0 0 1 3-3z" fill="#84d2f4"/><path d="m38 22h6v4h-6z" fill="#fcbc04"/><path d="m43 20a2 2 0 0 1 -2-2v-2a3 3 0 0 0 -3 3v3h6v-2z" fill="#57b7eb"/><path d="m40 22h-2v4h6v-2h-2a2 2 0 0 1 -2-2z" fill="#e59730"/></g><path d="m55 48h-40a3.992 3.992 0 0 1 -3.859-3h-3.141v2a4 4 0 0 0 4 4h40a4 4 0 0 0 3.892-3.108 3.974 3.974 0 0 1 -.892.108z" fill="#fcbc04"/><path d="m25 51a4.856 4.856 0 0 1 -2.683 4.342l-3.317 1.658 20-6z" fill="#e59730"/><path d="m19 59a2.99 2.99 0 0 1 -2.816-2h-.184a4 4 0 0 0 -4 4h40a3.955 3.955 0 0 0 -.555-2z" fill="#fcbc04"/></g></g><g id="Outline_copy" data-name="Outline copy"><g fill="#323232"><path d="m56 31a1 1 0 0 0 -1 1v15a3 3 0 0 1 -3 3h-40a3 3 0 0 1 -3-3v-1h43a1 1 0 0 0 0-2h-43v-21a3 3 0 0 1 3-3 1 1 0 0 0 0-2 5.006 5.006 0 0 0 -5 5v24a5.006 5.006 0 0 0 5 5h11.866a3.829 3.829 0 0 1 -2 2.447l-3.102 1.553h-2.764a5.006 5.006 0 0 0 -5 5 1 1 0 0 0 1 1h29a1 1 0 0 0 0-2h-27.829a3.006 3.006 0 0 1 2.829-2h32a3.006 3.006 0 0 1 2.829 2h-5.829a1 1 0 0 0 0 2h7a1 1 0 0 0 1-1 5.006 5.006 0 0 0 -5-5h-2.764l-3.1-1.553a3.828 3.828 0 0 1 -2-2.447h11.864a5.006 5.006 0 0 0 5-5v-15a1 1 0 0 0 -1-1zm-15.164 25h-17.671a5.792 5.792 0 0 0 2.741-4h12.188a5.8 5.8 0 0 0 2.742 4z"/><path d="m52 18h-3v-10h7a1 1 0 0 0 .707-1.707l-4-4a1 1 0 0 0 -.707-.293h-29a1 1 0 0 0 -.707.293l-4 4a1 1 0 0 0 .707 1.707h4.5v2a1 1 0 0 0 1 1 .5.5 0 1 1 -.5.5 1 1 0 0 0 -2 0 2.5 2.5 0 1 0 3.5-2.291v-1.209h4.5a1 1 0 0 0 0-2h-.586l1.586-1.586 3.293 3.293a1 1 0 0 0 .707.293h8v3a1 1 0 0 0 .293.707l3.293 3.293-1.586 1.586v-.586a1 1 0 0 0 -1-1h-3a4 4 0 0 0 -3.858 3h-5.142a1 1 0 0 0 0 2h5v6a1 1 0 0 0 1 1h5v12a1 1 0 0 0 1.447.9l2.553-1.282v.382a1 1 0 0 0 1 1h3a1 1 0 0 0 0-2h-2v-18h3a3 3 0 0 1 3 3v5a1 1 0 0 0 2 0v-5a5.006 5.006 0 0 0 -5-5zm0-13.586 1.586 1.586h-3.172zm-4 1.172-1.586-1.586h3.172zm-7.414.414h-3.172l1.586-1.586zm.828-2h1.586v1.586zm3.586 1.414 1.586 1.586-1.586 1.586zm-16.414-1.414-1.586 1.586-1.586-1.586zm-5.586.414 1.586 1.586h-3.172zm10.414-.414h3.172l-1.586 1.586zm12 7 1.586-1.586v3.172zm1.586 6.414v3.172l-1.586-1.586zm-2 4 1.586 1.586-1.586 1.586zm0 7 1.586 1.586-1.586 1.586zm.914-1.914 1.086-1.086v2.172zm-4.914-9.5h2v4h-4v-2a2 2 0 0 1 2-2zm-2 8v-2h4v2zm6 12.382v-1.968l1.312 1.312zm.914-3.882 1.086-1.086v2.172z"/><path d="m24 40a1 1 0 0 0 1-1v-5a2 2 0 0 0 -2-2h-2a2 2 0 0 0 -2 2v5a1 1 0 0 0 2 0v-5h2v5a1 1 0 0 0 1 1z"/><path d="m12 32a1 1 0 0 0 -1 1v6a1 1 0 0 0 2 0v-1h2v1a1 1 0 0 0 2 0v-9h10v9a1 1 0 0 0 2 0v-1h4v1a1 1 0 0 0 2 0v-6a1 1 0 0 0 -1-1h-1v-7a1 1 0 0 0 -1-1h-3v-7a1 1 0 0 0 -1-1h-7v-3a1 1 0 0 0 -1-1h-1v-2a1 1 0 0 0 -2 0v2h-1a1 1 0 0 0 -1 1v19zm1 4v-2h2v2zm14-12h-2v-2h2zm-4 0h-2v-2h2zm-6-2h2v2h-2zm2-2h-2v-2h2zm-2 6h2v2h-2zm4 0h2v2h-2zm4 2v-2h2v2zm4 8v-2h4v2zm0-4v-2h2v2zm2-4h-2v-2h2zm-4-8h-2v-2h2zm-4 0h-2v-2h2zm-6-6h2v2h-2z"/></g></g></g></svg>