<svg id="Capa_1" enable-background="new 0 0 512 512" height="512" viewBox="0 0 512 512" width="512" xmlns="http://www.w3.org/2000/svg"><g><g><g><g><g><g><g><g><circle cx="256" cy="256" fill="#ffce00" r="256"/></g></g></g></g></g></g></g><path d="m512 256c0-14.943-1.281-29.587-3.737-43.829l-87.325-87.325-352.851 242.947 139.668 139.667c15.625 2.98 31.753 4.54 48.245 4.54 141.385 0 256-114.615 256-256z" fill="#ffa300"/><g><path d="m430.297 346.426h-348.594v-198.744c0-17.98 14.576-32.555 32.555-32.555h283.483c17.98 0 32.555 14.576 32.555 32.555v198.744z" fill="#707789"/></g><g><path d="m430.297 147.682c0-17.98-14.576-32.556-32.555-32.556h-141.621v231.299h174.176z" fill="#555a66"/></g><g><path d="m408.95 330.564h-305.9v-175.168c0-9.816 7.958-17.774 17.774-17.774h270.352c9.816 0 17.774 7.958 17.774 17.774z" fill="#fff"/></g><g><path d="m408.95 155.396c0-9.816-7.958-17.774-17.774-17.774h-135.055v192.942h152.829z" fill="#e9edf5"/></g><g><path d="m430.564 372.729h-349.128c-11.343 0-20.538-9.195-20.538-20.538v-26.043h390.204v26.043c0 11.343-9.195 20.538-20.538 20.538z" fill="#555a66"/></g><g><path d="m256.121 326.148v46.581h174.443c11.343 0 20.538-9.195 20.538-20.538v-26.043z" fill="#333940"/></g><g><g><path d="m256 318.016c-23.165 0-44.882-9.084-61.15-25.58-16.265-16.493-25.045-38.34-24.723-61.519.313-22.39 9.265-43.502 25.209-59.446s37.056-24.896 59.446-25.208c23.185-.315 45.026 8.458 61.519 24.722 16.495 16.268 25.58 37.984 25.58 61.15 0 16.42-4.925 32.47-14.242 46.416-8.813 13.191-24.323 18.739-39.508 14.131-9.448-2.866-16.818-9.065-21.043-17.161-3.587.915-7.308 1.386-11.088 1.386-24.688 0-44.772-20.085-44.772-44.772s20.085-44.772 44.772-44.772c11.467 0 22.377 4.338 30.722 12.215l4.39 4.144v55.236c0 4.846 3.6 6.461 5.146 6.93 1.544.469 5.418 1.121 8.1-2.892 6.23-9.326 9.523-19.998 9.523-30.861 0-15.613-6.123-30.25-17.241-41.214-11.115-10.961-25.868-16.886-41.468-16.661-31.024.432-56.615 26.022-57.047 57.046-.218 15.626 5.699 30.354 16.661 41.469 10.965 11.118 25.602 17.241 41.214 17.241zm0-102.653c-9.248 0-16.772 7.524-16.772 16.772 0 9.249 7.524 16.772 16.772 16.772 2.488 0 4.908-.547 7.111-1.582v-30.38c-2.203-1.035-4.623-1.582-7.111-1.582z" fill="#fe8205"/></g></g><g><g><path d="m316.301 170.985c-16.174-15.95-37.496-24.673-60.18-24.708v27.992c15.247.024 29.63 5.913 40.519 16.651 11.118 10.964 17.241 25.601 17.241 41.214 0 10.864-3.293 21.536-9.523 30.861-2.682 4.012-6.556 3.36-8.1 2.892-1.547-.469-5.146-2.084-5.146-6.93v-55.236l-4.39-4.144c-8.315-7.849-19.179-12.182-30.601-12.212v28.004c2.445.018 4.823.557 6.991 1.575v30.38c-2.167 1.018-4.545 1.558-6.991 1.575v28.003c3.739-.01 7.419-.478 10.967-1.382 4.225 8.096 11.595 14.295 21.043 17.161 15.185 4.607 30.694-.94 39.508-14.131 9.317-13.946 14.242-29.996 14.242-46.416 0-23.164-9.085-44.881-25.58-61.149z" fill="#fa5d0f"/></g></g></g></svg>