<svg height="512pt" viewBox="0 0 512 512" width="512pt" xmlns="http://www.w3.org/2000/svg"><path d="m437.015625 74.980469c-48.351563-48.347657-112.636719-74.97656275-181.019531-74.980469-68.378906.00390625-132.664063 26.632812-181.019532 74.980469-48.351562 48.355469-74.98046825 112.640625-74.976562 181.015625 0 49.875 14.269531 97.953125 41.328125 139.496094l-20.816406 80.988281c-1.320313 5.136719.171875 10.589843 3.921875 14.339843s9.203125 5.242188 14.339844 3.921876l82.320312-21.152344c40.476562 25.148437 86.972656 38.410156 134.902344 38.410156 68.378906 0 132.667968-26.628906 181.019531-74.980469 48.355469-48.355469 74.984375-112.640625 74.984375-181.023437-.003906-68.378906-26.632812-132.660156-74.984375-181.015625zm0 0" fill="#54e360"/><path d="m512 255.996094c-.003906-68.378906-26.632812-132.664063-74.984375-181.015625-48.351563-48.347657-112.636719-74.97656275-181.019531-74.980469v512c68.382812-.003906 132.667968-26.632812 181.019531-74.980469 48.351563-48.355469 74.984375-112.640625 74.984375-181.023437zm0 0" fill="#1fbf66"/><path d="m387.851562 328.644531c.011719-.011719.019532-.023437.027344-.03125 5.816406-5.855469 5.8125-15.304687-.011718-21.152343-.003907-.003907-.007813-.011719-.011719-.015626l-35.617188-35.613281c-5.832031-5.824219-15.265625-5.839843-21.128906-.058593-.011719.011718-.023437.023437-.035156.035156h.003906l-23.515625 23.507812-90.886719-90.882812 23.511719-23.511719c5.816406-5.855469 5.8125-15.304687-.011719-21.152344h.003907l-35.617188-35.617187c-.003906-.003906-.007812-.007813-.011719-.011719-5.847656-5.835937-15.304687-5.839844-21.164062-.019531-.015625.011718-.027344.019531-.039063.03125h.003906l-51.882812 51.878906c-15.617188 15.621094-15.617188 41.179688.003906 56.804688l147.6875 147.691406c11.230469 11.226562 27.589844 14.386718 41.707032 9.472656 5.523437-1.921875 10.703124-5.078125 15.101562-9.472656l20.773438-20.777344 31.105468-31.101562c.003906 0 .003906-.003907.003906-.003907zm0 0" fill="#e7f0ef"/><path d="m387.871094 307.460938c-.003906-.007813-.007813-.011719-.011719-.015626l-35.617187-35.617187c-5.835938-5.820313-15.269532-5.839844-21.128907-.054687-.015625.011718-.027343.019531-.039062.03125h.003906l-23.515625 23.511718-51.5625-51.5625v113.609375l23.160156 23.164063c11.230469 11.226562 27.59375 14.382812 41.707032 9.472656 5.527343-1.921875 10.707031-5.078125 15.101562-9.472656l20.777344-20.78125 31.101562-31.097656c.003906-.003907.003906-.003907.003906-.003907.011719-.011719.019532-.023437.027344-.035156 5.816406-5.851563 5.8125-15.300781-.007812-21.148437zm0 0" fill="#c5e1e6"/></svg>